# Aspose.3D Wavefront OBJ Exporter
# Copyright 2004-2024 Aspose Pty Ltd.
# File created: 11/19/2024 21:15:41

mtllib material.lib
g Box002

#
# object Box002
#

v -4.9042087 142.25813 15.809966
v 0 142.25813 15.809966
v 4.9042087 142.25813 15.809966
v -4.9042087 142.25815 13.309967
v 0 142.25815 13.309967
v 4.9042087 142.25815 13.309967
v -4.9042087 142.25813 10.809962
v 0 142.25813 10.809962
v 4.9042087 142.25813 10.809962
v -2.5 16.134415 2.5
v 0 16.134415 2.5
v 2.5 16.134415 2.5
v 2.5 16.134415 9.87948E-16
v 2.5 16.134415 -2.5
v 0 16.134415 -2.5
v -2.5 16.134415 -2.5
v -2.5 16.134415 9.87948E-16
v -2.5 65.384186 -7.999028
v 0 65.384186 -7.999028
v 2.5 65.384186 -7.999028
v 2.5 65.384186 -10.499028
v 2.5 65.384186 -12.999028
v 0 65.384186 -12.999028
v -2.5 65.384186 -12.999028
v -2.5 65.384186 -10.499028
v -2.5 98.07628 -11.697451
v 0 98.07628 -11.697451
v 2.5 98.07628 -11.697451
v 2.5 98.07628 -14.197452
v 2.5 98.07628 -16.697453
v 0 98.07628 -16.697453
v -2.5 98.07628 -16.697453
v -2.5 98.07628 -14.197452
v -2.5 130.76837 -0.959363
v 0 130.76837 -0.959363
v 2.5 130.76837 -0.959363
v 2.5 130.76837 -3.459363
v 2.5 130.76837 -5.959363
v 0 130.76837 -5.959363
v -2.5 130.76837 -5.959363
v -2.5 130.76837 -3.459363
v -4.9856524 0 0
v -4.0533147 -2.4819394E-16 4.0533147
v 0 -3.0528317E-16 4.9856524
v 4.0533147 -2.4819394E-16 4.0533147
v 4.9856524 0 0
v 4.0533147 2.4819394E-16 -4.0533147
v 0 3.0528317E-16 -4.9856524
v -4.0533147 2.4819394E-16 -4.0533147
v 0 16.134415 6.9151
v -5.6219473 16.134415 5.6219473
v -6.9151 16.134415 9.87948E-16
v -5.6219473 16.134415 -5.6219473
v 0 16.134415 -6.9151
v 5.6219473 16.134415 -5.6219473
v 6.9151 16.134415 9.87948E-16
v 5.6219473 16.134415 5.6219473
v 0 141.84682 15.209658
v -4.085372 141.84682 15.209658
v -1.8532947 131.17969 -0.35905486
v 0 131.17969 -0.3590548
v 1.8532947 131.17969 -0.35905486
v 4.085372 141.84682 15.209658
v 0 140.89764 15.859996
v -4.085372 140.89764 15.859996
v -1.8532947 130.23051 0.29128355
v 0 130.23051 0.2912836
v 1.8532947 130.23051 0.29128355
v 4.085372 140.89764 15.859996
v 0 139.04367 15.596916
v -3.5377314 139.04367 15.596916
v -1.6048622 129.80646 2.1151757
v 0 129.80646 2.1151762
v 1.6048622 129.80646 2.1151757
v 3.5377314 139.04367 15.596916
# 75 vertices

vn 0 1 6.1035184E-06
vn 0 1 6.103518E-06
vn 0 1 6.6587846E-12
vn 0 1 6.1035184E-06
vn 0 1 6.6587846E-12
vn 0 1 6.9482198E-12
vn 0 1 6.1035184E-06
vn 0 1 6.1035184E-06
vn 0 1 6.9482198E-12
vn 0 1 6.1035184E-06
vn 0 1 6.9482198E-12
vn 0 1 7.237766E-12
vn 0 1 6.9482198E-12
vn 0 1 6.6587846E-12
vn 0 1 -6.1035043E-06
vn 0 1 6.9482198E-12
vn 0 1 -6.1035043E-06
vn 0 1 -6.1035043E-06
vn 0 1 7.237766E-12
vn 0 1 6.9482198E-12
vn 0 1 -6.1035043E-06
vn 0 1 7.237766E-12
vn 0 1 -6.1035043E-06
vn 0 1 -6.1035043E-06
vn -9.898395E-09 -0.11873982 0.9929254
vn -0.222658 -0.115759045 0.96799964
vn -0.2226579 -0.115759045 0.96799964
vn -0.2226579 -0.115759045 0.96799964
vn 1.9136976E-08 -0.11873983 0.9929254
vn -9.898395E-09 -0.11873982 0.9929254
vn 0.22265798 -0.11575907 0.96799964
vn -9.898395E-09 -0.11873982 0.9929254
vn 1.9136976E-08 -0.11873983 0.9929254
vn 1.9136976E-08 -0.11873983 0.9929254
vn 0.22265792 -0.115759045 0.9679997
vn 0.22265798 -0.11575907 0.96799964
vn 0 0.20849432 0.9780236
vn 0 0.2084943 0.9780235
vn 0 0.16064353 0.9870125
vn 0 0.20849432 0.9780236
vn 0 0.16064353 0.9870125
vn 0 0.16064353 0.9870125
vn 0 0.20849432 0.9780236
vn 0 0.20849432 0.9780236
vn 0 0.16064353 0.9870125
vn 0 0.20849432 0.9780236
vn 0 0.16064353 0.9870125
vn 0 0.16064353 0.9870125
vn 0 0.16064353 0.9870125
vn 0 0.16064353 0.9870125
vn 0 -0.102176115 0.9947663
vn 0 0.16064353 0.9870125
vn 0 -0.102176115 0.9947663
vn 0 -0.1021761 0.99476635
vn 0 0.16064353 0.9870125
vn 0 0.16064353 0.9870125
vn 0 -0.1021761 0.99476635
vn 0 0.16064353 0.9870125
vn 0 -0.1021761 0.99476635
vn 0 -0.10217606 0.9947663
vn 0 -0.1021761 0.99476635
vn 0 -0.102176115 0.9947663
vn 0 -0.31205884 0.95006275
vn 0 -0.1021761 0.99476635
vn 0 -0.31205884 0.95006275
vn 0 -0.31205884 0.9500628
vn 0 -0.10217606 0.9947663
vn 0 -0.1021761 0.99476635
vn 0 -0.31205884 0.9500628
vn 0 -0.10217606 0.9947663
vn 0 -0.31205884 0.9500628
vn 0 -0.31205887 0.9500628
vn -1.1395993E-08 -0.82494026 0.56522
vn 1.6793831E-07 -0.8249402 0.56521994
vn 1.1032467E-08 -0.82494026 0.56522
vn -1.1395993E-08 -0.82494026 0.56522
vn 1.1032467E-08 -0.82494026 0.56522
vn -5.232552E-09 -0.8249402 0.56521994
vn -1.4649392E-07 -0.8249402 0.56521994
vn -1.1395993E-08 -0.82494026 0.56522
vn -5.232552E-09 -0.8249402 0.56521994
vn -1.4649392E-07 -0.8249402 0.56521994
vn -5.232552E-09 -0.8249402 0.56521994
vn 0 -0.8249403 0.56522
vn 0.9929254 -0.11873982 9.898395E-09
vn 0.96799964 -0.115759045 0.222658
vn 0.96799964 -0.115759045 0.2226579
vn 0.96799964 -0.115759045 0.2226579
vn 0.9929254 -0.11873983 -1.9136976E-08
vn 0.9929254 -0.11873982 9.898395E-09
vn 0.96799964 -0.11575907 -0.22265798
vn 0.9929254 -0.11873982 9.898395E-09
vn 0.9929254 -0.11873983 -1.9136976E-08
vn 0.9929254 -0.11873983 -1.9136976E-08
vn 0.9679997 -0.115759045 -0.22265792
vn 0.96799964 -0.11575907 -0.22265798
vn 1 0 0
vn 1 0 0
vn 1 0 0
vn 1 0 0
vn 1 0 0
vn 1 0 0
vn 1 0 0
vn 1 0 0
vn 1 0 0
vn 1 0 0
vn 1 0 0
vn 1 0 0
vn 1 0 0
vn 1 0 0
vn 1 0 0
vn 1 0 0
vn 1 0 0
vn 1 0 0
vn 1 0 0
vn 1 0 0
vn 1 0 0
vn 1 0 0
vn 1 0 0
vn 1 0 0
vn 1 0 0
vn 1 0 0
vn 0.9987365 -0.050253358 -1.3877788E-17
vn 1 0 0
vn 0.9987365 -0.050253358 -1.3877788E-17
vn 0.9946862 -0.10295315 1.5535212E-08
vn 1 0 0
vn 1 0 0
vn 0.9946862 -0.10295315 1.5535212E-08
vn 1 0 0
vn 0.9946862 -0.10295315 1.5535212E-08
vn 0.99048483 -0.13762178 -2.5777998E-08
vn 0.9946862 -0.10295315 1.5535212E-08
vn 0.9987365 -0.050253358 -1.3877788E-17
vn 0.978801 -0.20481357 1.2117176E-06
vn 0.9946862 -0.10295315 1.5535212E-08
vn 0.978801 -0.20481357 1.2117176E-06
vn 0.97880155 -0.20481105 -7.331306E-07
vn 0.99048483 -0.13762178 -2.5777998E-08
vn 0.9946862 -0.10295315 1.5535212E-08
vn 0.97880155 -0.20481105 -7.331306E-07
vn 0.99048483 -0.13762178 -2.5777998E-08
vn 0.97880155 -0.20481105 -7.331306E-07
vn 0.9788017 -0.20481041 -1.250064E-06
vn 9.898395E-09 -0.11873982 -0.9929254
vn 0.222658 -0.115759045 -0.96799964
vn 0.2226579 -0.115759045 -0.96799964
vn 0.2226579 -0.115759045 -0.96799964
vn -1.9136976E-08 -0.11873983 -0.9929254
vn 9.898395E-09 -0.11873982 -0.9929254
vn -0.22265798 -0.11575907 -0.96799964
vn 9.898395E-09 -0.11873982 -0.9929254
vn -1.9136976E-08 -0.11873983 -0.9929254
vn -1.9136976E-08 -0.11873983 -0.9929254
vn -0.22265792 -0.115759045 -0.9679997
vn -0.22265798 -0.11575907 -0.96799964
vn 0 -0.20849432 -0.9780236
vn 0 -0.2084943 -0.9780235
vn 0 -0.16064356 -0.9870125
vn 0 -0.20849432 -0.9780236
vn 0 -0.16064356 -0.9870125
vn 0 -0.16064355 -0.9870125
vn 0 -0.20849432 -0.9780236
vn 0 -0.20849432 -0.9780236
vn 0 -0.16064355 -0.9870125
vn 0 -0.20849432 -0.9780236
vn 0 -0.16064355 -0.9870125
vn 0 -0.16064356 -0.9870125
vn 0 -0.16064355 -0.9870125
vn 0 -0.16064356 -0.9870125
vn 0 0.102176115 -0.9947663
vn 0 -0.16064355 -0.9870125
vn 0 0.102176115 -0.9947663
vn 0 0.10217611 -0.99476635
vn 0 -0.16064356 -0.9870125
vn 0 -0.16064355 -0.9870125
vn 0 0.10217611 -0.99476635
vn 0 -0.16064356 -0.9870125
vn 0 0.10217611 -0.99476635
vn 0 0.10217607 -0.9947663
vn 0 0.10217611 -0.99476635
vn 0 0.102176115 -0.9947663
vn 0 0.60991436 -0.7924674
vn 0 0.10217611 -0.99476635
vn 0 0.60991436 -0.7924674
vn 0 0.6001813 -0.799864
vn 0 0.10217607 -0.9947663
vn 0 0.10217611 -0.99476635
vn 0 0.6001813 -0.799864
vn 0 0.10217607 -0.9947663
vn 0 0.6001813 -0.799864
vn 0 0.60991436 -0.7924673
vn 0 0.6001813 -0.799864
vn 0 0.60991436 -0.7924674
vn 0 0.82493997 -0.5652203
vn 0 0.6001813 -0.799864
vn 0 0.82493997 -0.5652203
vn 0 0.82493997 -0.5652203
vn 0 0.60991436 -0.7924673
vn 0 0.6001813 -0.799864
vn 0 0.82493997 -0.5652203
vn 0 0.60991436 -0.7924673
vn 0 0.82493997 -0.5652203
vn 0 0.8249401 -0.56522036
vn -0.9929254 -0.11873982 -9.898395E-09
vn -0.96799964 -0.115759045 -0.222658
vn -0.96799964 -0.115759045 -0.2226579
vn -0.96799964 -0.115759045 -0.2226579
vn -0.9929254 -0.11873983 1.9136976E-08
vn -0.9929254 -0.11873982 -9.898395E-09
vn -0.96799964 -0.11575907 0.22265798
vn -0.9929254 -0.11873982 -9.898395E-09
vn -0.9929254 -0.11873983 1.9136976E-08
vn -0.9929254 -0.11873983 1.9136976E-08
vn -0.9679997 -0.115759045 0.22265792
vn -0.96799964 -0.11575907 0.22265798
vn -0.99999994 0 0
vn -1 0 0
vn -1 0 0
vn -0.99999994 0 0
vn -1 0 0
vn -1 0 0
vn -1 0 0
vn -0.99999994 0 0
vn -1 0 0
vn -1 0 0
vn -1 0 0
vn -1 0 0
vn -1 0 0
vn -1 0 0
vn -1 0 0
vn -1 0 0
vn -1 0 0
vn -1 0 0
vn -1 0 0
vn -1 0 0
vn -1 0 0
vn -1 0 0
vn -1 0 0
vn -1 0 0
vn -1 0 0
vn -1 0 0
vn -0.99048483 -0.13762197 -2.7755576E-17
vn -1 0 0
vn -0.99048483 -0.13762197 -2.7755576E-17
vn -0.9946863 -0.10295302 -1.2717642E-08
vn -1 0 0
vn -1 0 0
vn -0.9946863 -0.10295302 -1.2717642E-08
vn -1 0 0
vn -0.9946863 -0.10295302 -1.2717642E-08
vn -0.9987365 -0.050253324 3.1932558E-08
vn -0.9946863 -0.10295302 -1.2717642E-08
vn -0.99048483 -0.13762197 -2.7755576E-17
vn -0.97880167 -0.20481035 -1.1199214E-06
vn -0.9946863 -0.10295302 -1.2717642E-08
vn -0.97880167 -0.20481035 -1.1199214E-06
vn -0.9788015 -0.20481081 -7.8933425E-07
vn -0.9987365 -0.050253324 3.1932558E-08
vn -0.9946863 -0.10295302 -1.2717642E-08
vn -0.9788015 -0.20481081 -7.8933425E-07
vn -0.9987365 -0.050253324 3.1932558E-08
vn -0.9788015 -0.20481081 -7.8933425E-07
vn -0.97880095 -0.20481388 1.2500824E-06
vn 0 1 2.220446E-16
vn 0 1 2.220446E-16
vn 0 1 2.220446E-16
vn 0 1 2.220446E-16
vn 0 0.99999994 1.110223E-16
vn 0 1 2.220446E-16
vn 0 0.99999994 1.110223E-16
vn 0 1 2.220446E-16
vn 0 1 2.220446E-16
vn 0 1 2.220446E-16
vn 0 1 2.220446E-16
vn 0 1 2.220446E-16
vn 0 1 2.220446E-16
vn 0 1 2.220446E-16
vn 0 1 2.220446E-16
vn 0 1 2.220446E-16
vn 0 0.99999994 1.110223E-16
vn 0 1 2.220446E-16
vn 0 0.99999994 1.110223E-16
vn 0 1 2.220446E-16
vn 0 1 2.220446E-16
vn 0 1 2.220446E-16
vn 0 1 2.220446E-16
vn 0 1 2.220446E-16
vn 0 1 2.220446E-16
vn 0 1 2.220446E-16
vn 0 1 2.220446E-16
vn 0 1 2.220446E-16
vn 0 0.99999994 1.110223E-16
vn 0 1 2.220446E-16
vn 0 0.99999994 1.110223E-16
vn 0 1 2.220446E-16
vn 0 1 2.220446E-16
vn 0 1 2.220446E-16
vn 0 1 2.220446E-16
vn 0 1 2.220446E-16
vn 0 1 2.220446E-16
vn 0 1 2.220446E-16
vn 0 1 2.220446E-16
vn 0 1 2.220446E-16
vn 0 0.99999994 1.110223E-16
vn 0 1 2.220446E-16
vn 0 0.99999994 1.110223E-16
vn 0 1 2.220446E-16
vn 0 1 2.220446E-16
vn 0 1 2.220446E-16
vn 0 1 2.220446E-16
vn 0 1 2.220446E-16
vn 6.370321E-06 -0.8249396 0.56522083
vn 6.3703214E-06 -0.82493967 0.5652209
vn 6.3703205E-06 -0.8249396 0.56522083
vn -6.620232E-06 -0.8249408 0.5652192
vn -6.6202324E-06 -0.82494074 0.5652192
vn -6.620232E-06 -0.8249407 0.56521916
vn 0 -0.82493633 0.5652255
vn 0 -0.8249364 0.5652255
vn 0 -0.82493645 0.56522554
vn 1.817847E-08 -0.8249364 0.5652255
vn 1.8178472E-08 -0.8249365 0.56522554
vn 1.8178472E-08 -0.8249365 0.56522554
vn 0 -0.82493645 0.5652255
vn 0 -0.8249365 0.56522554
vn 0 -0.82493645 0.5652255
vn -1.8178472E-08 -0.8249364 0.56522554
vn -1.8178472E-08 -0.8249364 0.56522554
vn -1.8178474E-08 -0.8249364 0.5652256
vn 6.1462483E-06 -0.82494056 0.56521964
vn 6.146248E-06 -0.82494044 0.5652196
vn 6.1462474E-06 -0.82494044 0.5652196
vn -6.8615855E-06 -0.8249399 0.56522053
vn -6.8615846E-06 -0.82493985 0.5652205
vn -6.8615846E-06 -0.8249399 0.56522053
vn 0 -0.82493657 0.56522536
vn 0 -0.82493657 0.5652253
vn 0 -0.82493657 0.56522536
vn 0 -0.82493657 0.56522536
vn 0 -0.82493657 0.56522536
vn 0 -0.82493657 0.56522536
vn 0 -0.8249366 0.56522536
vn 0 -0.82493657 0.56522536
vn 0 -0.8249365 0.56522536
vn 0 -0.82493657 0.5652254
vn 0 -0.8249366 0.56522536
vn 0 -0.8249365 0.5652253
vn -0.9930785 -0.06638644 -0.09689144
vn -0.9930785 -0.06638645 -0.09689145
vn -0.9930784 -0.06638644 -0.096891426
vn -0.9930785 -0.066386424 -0.096891455
vn -0.9930785 -0.06638643 -0.096891455
vn -0.9930784 -0.066386424 -0.09689145
vn -2.6531294E-08 -0.56521916 -0.8249409
vn -2.6531291E-08 -0.5652191 -0.8249408
vn -2.6531294E-08 -0.56521916 -0.82494086
vn -2.6531294E-08 -0.56521916 -0.82494086
vn -2.6531294E-08 -0.56521916 -0.8249409
vn -2.6531291E-08 -0.5652191 -0.8249408
vn 2.6531294E-08 -0.56521916 -0.8249409
vn 2.6531291E-08 -0.5652191 -0.8249408
vn 2.6531294E-08 -0.56521916 -0.82494086
vn 2.6531294E-08 -0.56521916 -0.82494086
vn 2.6531294E-08 -0.56521916 -0.8249409
vn 2.6531291E-08 -0.5652191 -0.8249408
vn 0.9930785 -0.06638643 -0.096891455
vn 0.9930784 -0.06638643 -0.096891455
vn 0.99307853 -0.06638644 -0.09689146
vn 0.9930785 -0.06638645 -0.09689143
vn 0.9930785 -0.06638645 -0.09689144
vn 0.9930785 -0.06638645 -0.09689144
vn 0 0.5652189 0.82494086
vn 0 0.5652189 0.82494086
vn 0 0.5652189 0.8249409
vn 0 0.5652189 0.8249409
vn 0 0.5652189 0.82494086
vn 0 0.5652189 0.82494086
vn 0 0.5652189 0.82494086
vn 0 0.5652189 0.82494086
vn 0 0.5652189 0.8249409
vn 0 0.5652189 0.8249409
vn 0 0.5652189 0.82494086
vn 0 0.5652189 0.82494086
vn -0.95472455 -0.29086998 0.062415507
vn -0.95472455 -0.29086998 0.062415503
vn -0.9547246 -0.29087004 0.06241551
vn -0.9547244 -0.2908705 0.062415928
vn -0.9547244 -0.29087046 0.06241592
vn -0.9547244 -0.29087046 0.062415924
vn -7.2833086E-09 -0.9740203 -0.22646083
vn -7.283308E-09 -0.97402024 -0.22646083
vn -7.2833086E-09 -0.9740203 -0.22646084
vn -6.7286095E-08 -0.97402024 -0.22646075
vn -6.72861E-08 -0.97402036 -0.2264608
vn -6.7286095E-08 -0.97402024 -0.22646078
vn 7.283306E-09 -0.9740203 -0.22646077
vn 7.283307E-09 -0.9740203 -0.22646078
vn 7.283306E-09 -0.97402024 -0.22646075
vn 6.728611E-08 -0.97402024 -0.22646083
vn 6.7286116E-08 -0.97402024 -0.22646084
vn 6.7286116E-08 -0.97402024 -0.22646084
vn 0.9547244 -0.2908705 0.062415875
vn 0.95472443 -0.29087052 0.06241588
vn 0.9547243 -0.2908705 0.06241587
vn 0.9547246 -0.29086995 0.06241553
vn 0.9547245 -0.29086992 0.06241552
vn 0.9547246 -0.29086992 0.062415525
vn 0 -0.14049302 0.99008167
vn 0 -0.14049302 0.99008167
vn 0 -0.14049302 0.99008167
vn 0 -0.14049304 0.99008167
vn 0 -0.14049304 0.99008167
vn 0 -0.14049305 0.9900817
vn 0 -0.14049302 0.99008167
vn 0 -0.14049304 0.9900817
vn 0 -0.14049302 0.99008167
vn 0 -0.14049304 0.99008167
vn 0 -0.14049304 0.9900817
vn 0 -0.14049304 0.99008167
# 420 vertex normals

vt 0 0.2 0
vt 0.5 0.2 0
vt 1 0.2 0
vt 0 0.4 0
vt 0.5 0.4 0
vt 1 0.4 0
vt 0 0.6 0
vt 0.5 0.6 0
vt 1 0.6 0
vt 0 0.8 0
vt 0.5 0.8 0
vt 1 0.8 0
vt 0 1 0
vt 0.5 1 0
vt 1 1 0
vt 0 0.2 0
vt 0.5 0.2 0
vt 1 0.2 0
vt 0 0.4 0
vt 0.5 0.4 0
vt 1 0.4 0
vt 0 0.6 0
vt 0.5 0.6 0
vt 1 0.6 0
vt 0 0.8 0
vt 0.5 0.8 0
vt 1 0.8 0
vt 0 1 0
vt 0.5 1 0
vt 1 1 0
vt 0 0 0
vt 0.5 0 0
vt 1 0 0
vt 0 0.5 0
vt 0.5 0.5 0
vt 1 0.5 0
vt 0 1 0
vt 0.5 1 0
vt 1 1 0
vt 0.5 0 0
vt 0 0 0
vt 1 0 0
vt 0.5 0 0
vt 1 0 0
vt 0 0 0
vt 0.5 0.2 0
vt 0 0.2 0
vt 1 0.2 0
vt 0.5 0.2 0
vt 1 0.2 0
vt 0 0.2 0
vt 0.5 1 0
vt 0 1 0
vt 0 0.8 0
vt 0.5 0.8 0
vt 1 0.8 0
vt 1 1 0
vt 0.5 1 0
vt 0 1 0
vt 0 0.8 0
vt 0.5 0.8 0
vt 1 0.8 0
vt 1 1 0
vt 0.5 1 0
vt 0 1 0
vt 0 0.8 0
vt 0.5 0.8 0
vt 1 0.8 0
vt 1 1 0
# 69 texture coords

usemtl 02 - Default
s 1
f 2/32/1 3/33/2 6/36/3
f 2/32/4 6/36/5 5/35/6
f 1/31/7 2/32/8 5/35/9
f 1/31/10 5/35/11 4/34/12
f 5/35/13 6/36/14 9/39/15
f 5/35/16 9/39/17 8/38/18
f 4/34/19 5/35/20 8/38/21
f 4/34/22 8/38/23 7/37/24
f 50/46/25 51/47/26 43/41/27
f 43/41/28 44/43/29 50/46/30
f 57/50/31 50/46/32 44/43/33
f 44/43/34 45/44/35 57/50/36
f 11/17/37 12/18/38 20/21/39
f 11/17/40 20/21/41 19/20/42
f 10/16/43 11/17/44 19/20/45
f 10/16/46 19/20/47 18/19/48
f 19/20/49 20/21/50 28/24/51
f 19/20/52 28/24/53 27/23/54
f 18/19/55 19/20/56 27/23/57
f 18/19/58 27/23/59 26/22/60
f 27/23/61 28/24/62 36/27/63
f 27/23/64 36/27/65 35/26/66
f 26/22/67 27/23/68 35/26/69
f 26/22/70 35/26/71 34/25/72
f 73/67/73 74/68/74 75/69/75
f 73/67/76 75/69/77 70/64/78
f 72/66/79 73/67/80 70/64/81
f 72/66/82 70/64/83 71/65/84
f 56/49/85 57/51/86 45/45/87
f 45/45/88 46/40/89 56/49/90
f 55/48/91 56/49/92 46/40/93
f 46/40/94 47/42/95 55/48/96
f 13/2/97 14/3/98 22/6/99
f 13/2/100 22/6/101 21/5/102
f 12/1/103 13/2/104 21/5/105
f 12/1/106 21/5/107 20/4/108
f 21/5/109 22/6/110 30/9/111
f 21/5/112 30/9/113 29/8/114
f 20/4/115 21/5/116 29/8/117
f 20/4/118 29/8/119 28/7/120
f 29/8/121 30/9/122 38/12/123
f 29/8/124 38/12/125 37/11/126
f 28/7/127 29/8/128 37/11/129
f 28/7/130 37/11/131 36/10/132
f 37/11/133 38/12/134 9/15/135
f 37/11/136 9/15/137 6/14/138
f 36/10/139 37/11/140 6/14/141
f 36/10/142 6/14/143 3/13/144
f 54/46/145 55/47/146 47/41/147
f 47/41/148 48/43/149 54/46/150
f 53/50/151 54/46/152 48/43/153
f 48/43/154 49/44/155 53/50/156
f 15/17/157 16/18/158 24/21/159
f 15/17/160 24/21/161 23/20/162
f 14/16/163 15/17/164 23/20/165
f 14/16/166 23/20/167 22/19/168
f 23/20/169 24/21/170 32/24/171
f 23/20/172 32/24/173 31/23/174
f 22/19/175 23/20/176 31/23/177
f 22/19/178 31/23/179 30/22/180
f 31/23/181 32/24/182 40/27/183
f 31/23/184 40/27/185 39/26/186
f 30/22/187 31/23/188 39/26/189
f 30/22/190 39/26/191 38/25/192
f 39/26/193 40/27/194 7/30/195
f 39/26/196 7/30/197 8/29/198
f 38/25/199 39/26/200 8/29/201
f 38/25/202 8/29/203 9/28/204
f 52/49/205 53/51/206 49/45/207
f 49/45/208 42/40/209 52/49/210
f 51/48/211 52/49/212 42/40/213
f 42/40/214 43/42/215 51/48/216
f 17/2/217 10/3/218 18/6/219
f 17/2/220 18/6/221 25/5/222
f 16/1/223 17/2/224 25/5/225
f 16/1/226 25/5/227 24/4/228
f 25/5/229 18/6/230 26/9/231
f 25/5/232 26/9/233 33/8/234
f 24/4/235 25/5/236 33/8/237
f 24/4/238 33/8/239 32/7/240
f 33/8/241 26/9/242 34/12/243
f 33/8/244 34/12/245 41/11/246
f 32/7/247 33/8/248 41/11/249
f 32/7/250 41/11/251 40/10/252
f 41/11/253 34/12/254 1/15/255
f 41/11/256 1/15/257 4/14/258
f 40/10/259 41/11/260 4/14/261
f 40/10/262 4/14/263 7/13/264
f 11/17/265 10/16/266 51/47/267
f 51/47/268 50/46/269 11/17/270
f 10/3/271 17/2/272 52/49/273
f 52/49/274 51/48/275 10/3/276
f 17/2/277 16/1/278 53/51/279
f 53/51/280 52/49/281 17/2/282
f 16/18/283 15/17/284 54/46/285
f 54/46/286 53/50/287 16/18/288
f 15/17/289 14/16/290 55/47/291
f 55/47/292 54/46/293 15/17/294
f 14/3/295 13/2/296 56/49/297
f 56/49/298 55/48/299 14/3/300
f 13/2/301 12/1/302 57/51/303
f 57/51/304 56/49/305 13/2/306
f 12/18/307 11/17/308 50/46/309
f 50/46/310 57/50/311 12/18/312
f 1/28/313 34/25/314 60/54/315
f 60/54/316 59/53/317 1/28/318
f 35/26/319 36/27/320 62/56/321
f 35/26/322 62/56/323 61/55/324
f 34/25/325 35/26/326 61/55/327
f 34/25/328 61/55/329 60/54/330
f 36/27/331 3/30/332 63/57/333
f 63/57/334 62/56/335 36/27/336
f 2/29/337 1/28/338 59/53/339
f 2/29/340 59/53/341 58/52/342
f 3/30/343 2/29/344 58/52/345
f 3/30/346 58/52/347 63/57/348
f 59/53/349 60/54/350 66/60/351
f 66/60/352 65/59/353 59/53/354
f 61/55/355 62/56/356 68/62/357
f 61/55/358 68/62/359 67/61/360
f 60/54/361 61/55/362 67/61/363
f 60/54/364 67/61/365 66/60/366
f 62/56/367 63/57/368 69/63/369
f 69/63/370 68/62/371 62/56/372
f 58/52/373 59/53/374 65/59/375
f 58/52/376 65/59/377 64/58/378
f 63/57/379 58/52/380 64/58/381
f 63/57/382 64/58/383 69/63/384
f 65/59/385 66/60/386 72/66/387
f 72/66/388 71/65/389 65/59/390
f 67/61/391 68/62/392 74/68/393
f 67/61/394 74/68/395 73/67/396
f 66/60/397 67/61/398 73/67/399
f 66/60/400 73/67/401 72/66/402
f 68/62/403 69/63/404 75/69/405
f 75/69/406 74/68/407 68/62/408
f 64/58/409 65/59/410 71/65/411
f 64/58/412 71/65/413 70/64/414
f 69/63/415 64/58/416 70/64/417
f 69/63/418 70/64/419 75/69/420
#140 polygons

