# Aspose.3D Wavefront OBJ Exporter
# Copyright 2004-2024 Aspose Pty Ltd.
# File created: 11/19/2024 20:53:44

mtllib material.lib
g low_poly_post

#
# object low_poly_post
#

v 0.16029084 5.194132 0.14925951
v 1.0434624 5.7915344 0.14925951
v 1.0434624 5.7915344 -0.14925951
v 0.16029084 5.194132 -0.14925951
v 1.7608417 5.775919 -0.14925951
v 0.16424584 4.695936 -0.14925951
v 1.7608417 5.775919 0.14925951
v 0.16424584 4.695936 0.14925951
v -0.23408043 2.0597463 0.23408055
v -0.23408043 5.767498 0.23408055
v -0.23408043 5.767498 -0.23408055
v -0.23408043 2.0597463 -0.23408055
v 0.23408091 5.767498 -0.23408055
v 0.23408091 2.0597458 -0.23408055
v 0.23408091 5.767498 0.23408055
v 0.23408091 2.0597458 0.23408055
v 0.3011167 -1.6042308 0.30111668
v -0.30111635 -1.6042308 0.30111668
v 0.3011167 -1.6042308 -0.30111668
v -0.30111635 -1.6042308 -0.30111668
v 3.5427532 6.1918845 0.23408055
v 4.2468967 6.226742 0.26893798
v 4.2468967 6.226742 -0.26893798
v 3.5427532 6.1918845 -0.23408055
v 4.2468977 5.6888657 -0.26893798
v 3.5427537 5.7237234 -0.23408055
v 4.2468977 5.6888657 0.26893798
v 3.5427537 5.7237234 0.23408055
v -0.2960254 6.3267055 -0.2665799
v -0.2960254 5.7237234 -0.2665799
v -0.2960254 5.7237234 0.2665799
v -0.2960254 6.3267055 0.2665799
v 0.44219446 5.7237234 0.23408055
v 0.44219434 6.1918845 0.23408055
v 0.44219446 5.7237234 -0.23408055
v 0.44219434 6.1918836 -0.23408055
# 36 vertices

vn -0.5602853 0.82829976 0
vn 0 0 -1
vn 0.56028545 -0.8282996 0
vn 0 2.3994568E-08 1
vn -1 -2.0094605E-08 0
vn 0 8.1996093E-10 -1
vn 1 2.4113525E-08 0
vn 0 1.4628189E-09 1
vn 7.597679E-09 0.018292945 0.99983263
vn 0.99983263 0.01829283 0
vn 7.597679E-09 0.018292943 -0.99983263
vn -0.99983263 0.01829287 0
vn -0.049442835 0.9987769 0
vn -0.04944269 0 -0.9987769
vn -0.049443368 -0.9987769 0
vn -0.0494427 0 0.9987769
vn -1 4.942482E-08 0
vn 1 1.7730367E-06 0
vn 0.043981355 0 0.9990323
vn -4.031727E-07 -1 0
vn 0.043981317 0 -0.9990323
vn 0.17965966 0.9837288 -9.3699737E-07
vn 0 0 1
vn 1.6424976E-07 -1 0
vn -1.6424977E-07 1 -1.0185322E-06
# 25 vertex normals

vt 0.7973973 0.22791591 0
vt 0.7973973 0.3673581 0
vt 0.7583574 0.3673581 0
vt 0.7583574 0.22791591 0
vt 0.56156117 0.7218195 0
vt 0.56156117 0.86126184 0
vt 0.5073048 0.937827 0
vt 0.5073048 0.6857434 0
vt 0.46187764 0.7375055 0
vt 0.46187764 0.98958874 0
vt 0.42283764 0.98958874 0
vt 0.42283764 0.7375055 0
vt 0.6325776 0.71343166 0
vt 0.6325776 0.9655151 0
vt 0.57832116 0.8889499 0
vt 0.57832116 0.7495076 0
vt 0.3120066 0.5047834 0
vt 0.31641537 0.9896583 0
vt 0.2551924 0.99021494 0
vt 0.25078356 0.5053401 0
vt 0.1670318 0.5109034 0
vt 0.16262296 0.026028574 0
vt 0.22384591 0.025471926 0
vt 0.22825484 0.5103468 0
vt 0.40468687 0.5047832 0
vt 0.40909573 0.98965824 0
vt 0.34787273 0.99021494 0
vt 0.3434639 0.5053399 0
vt 0.07435149 0.5109035 0
vt 0.06994271 0.026028603 0
vt 0.13116568 0.025471926 0
vt 0.13557446 0.5103468 0
vt 0.06994271 0.990214 0
vt 0.14869866 0.98949784 0
vt 0.40909573 0.025473088 0
vt 0.33033967 0.026189178 0
vt 0.16262296 0.9902139 0
vt 0.2413789 0.98949784 0
vt 0.31641537 0.025473088 0
vt 0.23765935 0.026189178 0
vt 0.6639841 0.6064125 0
vt 0.6685904 0.6986098 0
vt 0.59824777 0.69864625 0
vt 0.6027586 0.6064442 0
vt 0.5156851 0.11919105 0
vt 0.50909996 0.027113497 0
vt 0.57942605 0.0255664 0
vt 0.5768956 0.11784446 0
vt 0.7447568 0.52744657 0
vt 0.7493633 0.619644 0
vt 0.6790205 0.6196806 0
vt 0.6835313 0.52747834 0
vt 0.4909004 0.6318951 0
vt 0.49343035 0.72417307 0
vt 0.42310464 0.7226259 0
vt 0.4296898 0.6305486 0
vt 0.7442358 0.86367023 0
vt 0.7442358 0.7848129 0
vt 0.81396174 0.78481287 0
vt 0.81396174 0.86367023 0
vt 0.77881306 0.5513779 0
vt 0.77881306 0.4810351 0
vt 0.8491558 0.4810351 0
vt 0.8491558 0.5513779 0
vt 0.5019429 0.12989148 0
vt 0.4998177 0.22650528 0
vt 0.4386071 0.22515881 0
vt 0.42310464 0.12815729 0
vt 0.7487465 0.025413722 0
vt 0.7445464 0.12195936 0
vt 0.6833209 0.12199119 0
vt 0.6790205 0.025449932 0
vt 0.50909996 0.6215817 0
vt 0.5246024 0.5245802 0
vt 0.5858129 0.5232339 0
vt 0.5879386 0.6198475 0
vt 0.66797364 0.102782965 0
vt 0.66377425 0.20092544 0
vt 0.6025487 0.20095715 0
vt 0.59824777 0.102819055 0
# 80 texture coords

usemtl DefaultMaterial
s 1
f 4/4/1 1/1/1 2/2/1
f 2/2/1 3/3/1 4/4/1
f 6/8/2 4/5/2 3/6/2
f 3/6/2 5/7/2 6/8/2
f 8/12/3 6/9/3 5/10/3
f 5/10/3 7/11/3 8/12/3
f 1/16/4 8/13/4 7/14/4
f 7/14/4 2/15/4 1/16/4
f 12/20/5 9/17/5 10/18/5
f 10/18/5 11/19/5 12/20/5
f 14/24/6 12/21/6 11/22/6
f 11/22/6 13/23/6 14/24/6
f 16/28/7 14/25/7 13/26/7
f 13/26/7 15/27/7 16/28/7
f 9/32/8 16/29/8 15/30/8
f 15/30/8 10/31/8 9/32/8
f 18/34/9 17/33/9 16/29/9
f 16/29/9 9/32/9 18/34/9
f 17/36/10 19/35/10 14/25/10
f 14/25/10 16/28/10 17/36/10
f 19/38/11 20/37/11 12/21/11
f 12/21/11 14/24/11 19/38/11
f 20/40/12 18/39/12 9/17/12
f 9/17/12 12/20/12 20/40/12
f 24/44/13 21/41/13 22/42/13
f 22/42/13 23/43/13 24/44/13
f 26/48/14 24/45/14 23/46/14
f 23/46/14 25/47/14 26/48/14
f 28/52/15 26/49/15 25/50/15
f 25/50/15 27/51/15 28/52/15
f 21/56/16 28/53/16 27/54/16
f 27/54/16 22/55/16 21/56/16
f 32/60/17 29/57/17 30/58/17
f 30/58/17 31/59/17 32/60/17
f 27/64/18 25/61/18 23/62/18
f 23/62/18 22/63/18 27/64/18
f 32/68/19 31/65/19 33/66/19
f 33/66/19 34/67/19 32/68/19
f 31/72/20 30/69/20 35/70/20
f 35/70/20 33/71/20 31/72/20
f 30/76/21 29/73/21 36/74/21
f 36/74/21 35/75/21 30/76/21
f 29/80/22 32/77/22 34/78/22
f 34/78/22 36/79/22 29/80/22
f 34/67/23 33/66/23 28/53/23
f 28/53/23 21/56/23 34/67/23
f 33/71/20 35/70/20 26/49/24
f 26/49/24 28/52/24 33/71/20
f 35/75/2 36/74/2 24/45/2
f 24/45/2 26/48/2 35/75/2
f 36/79/25 34/78/25 21/41/25
f 21/41/25 24/44/25 36/79/25
#52 polygons